<?xml version="1.0" encoding="UTF-8" standalone="no"?>
<svg
   data-v-fde0c5aa=""
   viewBox="0 0 300 300"
   class="iconAbove"
   version="1.1"
   id="svg16"
   sodipodi:docname="icon.svg"
   inkscape:version="1.1.1 (3bf5ae0d25, 2021-09-20)"
   xmlns:inkscape="http://www.inkscape.org/namespaces/inkscape"
   xmlns:sodipodi="http://sodipodi.sourceforge.net/DTD/sodipodi-0.dtd"
   xmlns="http://www.w3.org/2000/svg"
   xmlns:svg="http://www.w3.org/2000/svg">
  <sodipodi:namedview
     id="namedview18"
     pagecolor="#ffffff"
     bordercolor="#666666"
     borderopacity="1.0"
     inkscape:pageshadow="2"
     inkscape:pageopacity="0.0"
     inkscape:pagecheckerboard="0"
     showgrid="false"
     inkscape:zoom="2.1"
     inkscape:cx="149.7619"
     inkscape:cy="149.7619"
     inkscape:window-width="1920"
     inkscape:window-height="1007"
     inkscape:window-x="0"
     inkscape:window-y="0"
     inkscape:window-maximized="1"
     inkscape:current-layer="svg16" />
  <!---->
  <defs
     data-v-fde0c5aa=""
     id="defs2">
    <!---->
  </defs>
  <rect
     data-v-fde0c5aa=""
     fill="#442D81"
     x="0"
     y="0"
     width="300px"
     height="300px"
     class="logo-background-square"
     id="rect4" />
  <defs
     data-v-fde0c5aa=""
     id="defs6">
    <!---->
  </defs>
  <defs
     data-v-fde0c5aa=""
     id="defs11">
    <!---->
  </defs>
  <g
     data-v-fde0c5aa=""
     id="ee583c02-4de6-4b9c-9802-d24c0ff8dc99"
     stroke="none"
     fill="#727fd5"
     transform="matrix(1.5,0,0,1.5,60,60)">
    <path
       d="M 35,10 A 25,25 0 1 0 60,35 25,25 0 0 0 35,10 Z M 50,35 A 15,15 0 0 0 35,20 v -5 a 20,20 0 0 1 20,20 z m 37.5,2.5 A 22.5,22.5 0 1 0 110,60 22.5,22.5 0 0 0 87.5,37.5 Z M 100,60 A 12.52,12.52 0 0 0 87.5,47.5 v -5 A 17.52,17.52 0 0 1 105,60 Z M 45.5,70 a 20,20 0 1 0 20,20 20,20 0 0 0 -20,-20 z m 10,20 a 10,10 0 0 0 -10,-10 v -5 a 15,15 0 0 1 15,15 z"
       id="path13" />
  </g>
  <!---->
</svg>
