<svg xmlns="http://www.w3.org/2000/svg" width="200" height="200" preserveAspectRatio="xMidYMid" style="margin:auto;display:block" viewBox="0 0 100 100"><rect width="5" height="5" x="47.5" y="22.5" fill="#1db954" rx="0" ry="0"><animate attributeName="opacity" begin="-1.9038461538461537s" dur="1.923076923076923s" keyTimes="0;1" repeatCount="indefinite" values="1;0"/></rect><rect width="5" height="5" x="47.5" y="22.5" fill="#1db954" rx="0" ry="0" transform="rotate(3.6 50 50)"><animate attributeName="opacity" begin="-1.8846153846153846s" dur="1.923076923076923s" keyTimes="0;1" repeatCount="indefinite" values="1;0"/></rect><rect width="5" height="5" x="47.5" y="22.5" fill="#1db954" rx="0" ry="0" transform="rotate(7.2 50 50)"><animate attributeName="opacity" begin="-1.8653846153846154s" dur="1.923076923076923s" keyTimes="0;1" repeatCount="indefinite" values="1;0"/></rect><rect width="5" height="5" x="47.5" y="22.5" fill="#1db954" rx="0" ry="0" transform="rotate(10.8 50 50)"><animate attributeName="opacity" begin="-1.8461538461538463s" dur="1.923076923076923s" keyTimes="0;1" repeatCount="indefinite" values="1;0"/></rect><rect width="5" height="5" x="47.5" y="22.5" fill="#1db954" rx="0" ry="0" transform="rotate(14.4 50 50)"><animate attributeName="opacity" begin="-1.8269230769230769s" dur="1.923076923076923s" keyTimes="0;1" repeatCount="indefinite" values="1;0"/></rect><rect width="5" height="5" x="47.5" y="22.5" fill="#1db954" rx="0" ry="0" transform="rotate(18 50 50)"><animate attributeName="opacity" begin="-1.8076923076923077s" dur="1.923076923076923s" keyTimes="0;1" repeatCount="indefinite" values="1;0"/></rect><rect width="5" height="5" x="47.5" y="22.5" fill="#1db954" rx="0" ry="0" transform="rotate(21.6 50 50)"><animate attributeName="opacity" begin="-1.7884615384615385s" dur="1.923076923076923s" keyTimes="0;1" repeatCount="indefinite" values="1;0"/></rect><rect width="5" height="5" x="47.5" y="22.5" fill="#1db954" rx="0" ry="0" transform="rotate(25.2 50 50)"><animate attributeName="opacity" begin="-1.7692307692307692s" dur="1.923076923076923s" keyTimes="0;1" repeatCount="indefinite" values="1;0"/></rect><rect width="5" height="5" x="47.5" y="22.5" fill="#1db954" rx="0" ry="0" transform="rotate(28.8 50 50)"><animate attributeName="opacity" begin="-1.75s" dur="1.923076923076923s" keyTimes="0;1" repeatCount="indefinite" values="1;0"/></rect><rect width="5" height="5" x="47.5" y="22.5" fill="#1db954" rx="0" ry="0" transform="rotate(32.4 50 50)"><animate attributeName="opacity" begin="-1.7307692307692308s" dur="1.923076923076923s" keyTimes="0;1" repeatCount="indefinite" values="1;0"/></rect><rect width="5" height="5" x="47.5" y="22.5" fill="#1db954" rx="0" ry="0" transform="rotate(36 50 50)"><animate attributeName="opacity" begin="-1.7115384615384615s" dur="1.923076923076923s" keyTimes="0;1" repeatCount="indefinite" values="1;0"/></rect><rect width="5" height="5" x="47.5" y="22.5" fill="#1db954" rx="0" ry="0" transform="rotate(39.6 50 50)"><animate attributeName="opacity" begin="-1.6923076923076923s" dur="1.923076923076923s" keyTimes="0;1" repeatCount="indefinite" values="1;0"/></rect><rect width="5" height="5" x="47.5" y="22.5" fill="#1db954" rx="0" ry="0" transform="rotate(43.2 50 50)"><animate attributeName="opacity" begin="-1.6730769230769231s" dur="1.923076923076923s" keyTimes="0;1" repeatCount="indefinite" values="1;0"/></rect><rect width="5" height="5" x="47.5" y="22.5" fill="#1db954" rx="0" ry="0" transform="rotate(46.8 50 50)"><animate attributeName="opacity" begin="-1.6538461538461537s" dur="1.923076923076923s" keyTimes="0;1" repeatCount="indefinite" values="1;0"/></rect><rect width="5" height="5" x="47.5" y="22.5" fill="#1db954" rx="0" ry="0" transform="rotate(50.4 50 50)"><animate attributeName="opacity" begin="-1.6346153846153846s" dur="1.923076923076923s" keyTimes="0;1" repeatCount="indefinite" values="1;0"/></rect><rect width="5" height="5" x="47.5" y="22.5" fill="#1db954" rx="0" ry="0" transform="rotate(54 50 50)"><animate attributeName="opacity" begin="-1.6153846153846154s" dur="1.923076923076923s" keyTimes="0;1" repeatCount="indefinite" values="1;0"/></rect><rect width="5" height="5" x="47.5" y="22.5" fill="#1db954" rx="0" ry="0" transform="rotate(57.6 50 50)"><animate attributeName="opacity" begin="-1.5961538461538463s" dur="1.923076923076923s" keyTimes="0;1" repeatCount="indefinite" values="1;0"/></rect><rect width="5" height="5" x="47.5" y="22.5" fill="#1db954" rx="0" ry="0" transform="rotate(61.2 50 50)"><animate attributeName="opacity" begin="-1.5769230769230769s" dur="1.923076923076923s" keyTimes="0;1" repeatCount="indefinite" values="1;0"/></rect><rect width="5" height="5" x="47.5" y="22.5" fill="#1db954" rx="0" ry="0" transform="rotate(64.8 50 50)"><animate attributeName="opacity" begin="-1.5576923076923077s" dur="1.923076923076923s" keyTimes="0;1" repeatCount="indefinite" values="1;0"/></rect><rect width="5" height="5" x="47.5" y="22.5" fill="#1db954" rx="0" ry="0" transform="rotate(68.4 50 50)"><animate attributeName="opacity" begin="-1.5384615384615385s" dur="1.923076923076923s" keyTimes="0;1" repeatCount="indefinite" values="1;0"/></rect><rect width="5" height="5" x="47.5" y="22.5" fill="#1db954" rx="0" ry="0" transform="rotate(72 50 50)"><animate attributeName="opacity" begin="-1.5192307692307692s" dur="1.923076923076923s" keyTimes="0;1" repeatCount="indefinite" values="1;0"/></rect><rect width="5" height="5" x="47.5" y="22.5" fill="#1db954" rx="0" ry="0" transform="rotate(75.6 50 50)"><animate attributeName="opacity" begin="-1.5s" dur="1.923076923076923s" keyTimes="0;1" repeatCount="indefinite" values="1;0"/></rect><rect width="5" height="5" x="47.5" y="22.5" fill="#1db954" rx="0" ry="0" transform="rotate(79.2 50 50)"><animate attributeName="opacity" begin="-1.4807692307692308s" dur="1.923076923076923s" keyTimes="0;1" repeatCount="indefinite" values="1;0"/></rect><rect width="5" height="5" x="47.5" y="22.5" fill="#1db954" rx="0" ry="0" transform="rotate(82.8 50 50)"><animate attributeName="opacity" begin="-1.4615384615384615s" dur="1.923076923076923s" keyTimes="0;1" repeatCount="indefinite" values="1;0"/></rect><rect width="5" height="5" x="47.5" y="22.5" fill="#1db954" rx="0" ry="0" transform="rotate(86.4 50 50)"><animate attributeName="opacity" begin="-1.4423076923076923s" dur="1.923076923076923s" keyTimes="0;1" repeatCount="indefinite" values="1;0"/></rect><rect width="5" height="5" x="47.5" y="22.5" fill="#1db954" rx="0" ry="0" transform="rotate(90 50 50)"><animate attributeName="opacity" begin="-1.4230769230769231s" dur="1.923076923076923s" keyTimes="0;1" repeatCount="indefinite" values="1;0"/></rect><rect width="5" height="5" x="47.5" y="22.5" fill="#1db954" rx="0" ry="0" transform="rotate(93.6 50 50)"><animate attributeName="opacity" begin="-1.4038461538461537s" dur="1.923076923076923s" keyTimes="0;1" repeatCount="indefinite" values="1;0"/></rect><rect width="5" height="5" x="47.5" y="22.5" fill="#1db954" rx="0" ry="0" transform="rotate(97.2 50 50)"><animate attributeName="opacity" begin="-1.3846153846153846s" dur="1.923076923076923s" keyTimes="0;1" repeatCount="indefinite" values="1;0"/></rect><rect width="5" height="5" x="47.5" y="22.5" fill="#1db954" rx="0" ry="0" transform="rotate(100.8 50 50)"><animate attributeName="opacity" begin="-1.3653846153846154s" dur="1.923076923076923s" keyTimes="0;1" repeatCount="indefinite" values="1;0"/></rect><rect width="5" height="5" x="47.5" y="22.5" fill="#1db954" rx="0" ry="0" transform="rotate(104.4 50 50)"><animate attributeName="opacity" begin="-1.3461538461538463s" dur="1.923076923076923s" keyTimes="0;1" repeatCount="indefinite" values="1;0"/></rect><rect width="5" height="5" x="47.5" y="22.5" fill="#1db954" rx="0" ry="0" transform="rotate(108 50 50)"><animate attributeName="opacity" begin="-1.3269230769230769s" dur="1.923076923076923s" keyTimes="0;1" repeatCount="indefinite" values="1;0"/></rect><rect width="5" height="5" x="47.5" y="22.5" fill="#1db954" rx="0" ry="0" transform="rotate(111.6 50 50)"><animate attributeName="opacity" begin="-1.3076923076923077s" dur="1.923076923076923s" keyTimes="0;1" repeatCount="indefinite" values="1;0"/></rect><rect width="5" height="5" x="47.5" y="22.5" fill="#1db954" rx="0" ry="0" transform="rotate(115.2 50 50)"><animate attributeName="opacity" begin="-1.2884615384615385s" dur="1.923076923076923s" keyTimes="0;1" repeatCount="indefinite" values="1;0"/></rect><rect width="5" height="5" x="47.5" y="22.5" fill="#1db954" rx="0" ry="0" transform="rotate(118.8 50 50)"><animate attributeName="opacity" begin="-1.2692307692307692s" dur="1.923076923076923s" keyTimes="0;1" repeatCount="indefinite" values="1;0"/></rect><rect width="5" height="5" x="47.5" y="22.5" fill="#1db954" rx="0" ry="0" transform="rotate(122.4 50 50)"><animate attributeName="opacity" begin="-1.25s" dur="1.923076923076923s" keyTimes="0;1" repeatCount="indefinite" values="1;0"/></rect><rect width="5" height="5" x="47.5" y="22.5" fill="#1db954" rx="0" ry="0" transform="rotate(126 50 50)"><animate attributeName="opacity" begin="-1.2307692307692308s" dur="1.923076923076923s" keyTimes="0;1" repeatCount="indefinite" values="1;0"/></rect><rect width="5" height="5" x="47.5" y="22.5" fill="#1db954" rx="0" ry="0" transform="rotate(129.6 50 50)"><animate attributeName="opacity" begin="-1.2115384615384615s" dur="1.923076923076923s" keyTimes="0;1" repeatCount="indefinite" values="1;0"/></rect><rect width="5" height="5" x="47.5" y="22.5" fill="#1db954" rx="0" ry="0" transform="rotate(133.2 50 50)"><animate attributeName="opacity" begin="-1.1923076923076923s" dur="1.923076923076923s" keyTimes="0;1" repeatCount="indefinite" values="1;0"/></rect><rect width="5" height="5" x="47.5" y="22.5" fill="#1db954" rx="0" ry="0" transform="rotate(136.8 50 50)"><animate attributeName="opacity" begin="-1.1730769230769231s" dur="1.923076923076923s" keyTimes="0;1" repeatCount="indefinite" values="1;0"/></rect><rect width="5" height="5" x="47.5" y="22.5" fill="#1db954" rx="0" ry="0" transform="rotate(140.4 50 50)"><animate attributeName="opacity" begin="-1.1538461538461537s" dur="1.923076923076923s" keyTimes="0;1" repeatCount="indefinite" values="1;0"/></rect><rect width="5" height="5" x="47.5" y="22.5" fill="#1db954" rx="0" ry="0" transform="rotate(144 50 50)"><animate attributeName="opacity" begin="-1.1346153846153846s" dur="1.923076923076923s" keyTimes="0;1" repeatCount="indefinite" values="1;0"/></rect><rect width="5" height="5" x="47.5" y="22.5" fill="#1db954" rx="0" ry="0" transform="rotate(147.6 50 50)"><animate attributeName="opacity" begin="-1.1153846153846154s" dur="1.923076923076923s" keyTimes="0;1" repeatCount="indefinite" values="1;0"/></rect><rect width="5" height="5" x="47.5" y="22.5" fill="#1db954" rx="0" ry="0" transform="rotate(151.2 50 50)"><animate attributeName="opacity" begin="-1.0961538461538463s" dur="1.923076923076923s" keyTimes="0;1" repeatCount="indefinite" values="1;0"/></rect><rect width="5" height="5" x="47.5" y="22.5" fill="#1db954" rx="0" ry="0" transform="rotate(154.8 50 50)"><animate attributeName="opacity" begin="-1.0769230769230769s" dur="1.923076923076923s" keyTimes="0;1" repeatCount="indefinite" values="1;0"/></rect><rect width="5" height="5" x="47.5" y="22.5" fill="#1db954" rx="0" ry="0" transform="rotate(158.4 50 50)"><animate attributeName="opacity" begin="-1.0576923076923077s" dur="1.923076923076923s" keyTimes="0;1" repeatCount="indefinite" values="1;0"/></rect><rect width="5" height="5" x="47.5" y="22.5" fill="#1db954" rx="0" ry="0" transform="rotate(162 50 50)"><animate attributeName="opacity" begin="-1.0384615384615385s" dur="1.923076923076923s" keyTimes="0;1" repeatCount="indefinite" values="1;0"/></rect><rect width="5" height="5" x="47.5" y="22.5" fill="#1db954" rx="0" ry="0" transform="rotate(165.6 50 50)"><animate attributeName="opacity" begin="-1.0192307692307692s" dur="1.923076923076923s" keyTimes="0;1" repeatCount="indefinite" values="1;0"/></rect><rect width="5" height="5" x="47.5" y="22.5" fill="#1db954" rx="0" ry="0" transform="rotate(169.2 50 50)"><animate attributeName="opacity" begin="-1s" dur="1.923076923076923s" keyTimes="0;1" repeatCount="indefinite" values="1;0"/></rect><rect width="5" height="5" x="47.5" y="22.5" fill="#1db954" rx="0" ry="0" transform="rotate(172.8 50 50)"><animate attributeName="opacity" begin="-0.9807692307692307s" dur="1.923076923076923s" keyTimes="0;1" repeatCount="indefinite" values="1;0"/></rect><rect width="5" height="5" x="47.5" y="22.5" fill="#1db954" rx="0" ry="0" transform="rotate(176.4 50 50)"><animate attributeName="opacity" begin="-0.9615384615384616s" dur="1.923076923076923s" keyTimes="0;1" repeatCount="indefinite" values="1;0"/></rect><rect width="5" height="5" x="47.5" y="22.5" fill="#1db954" rx="0" ry="0" transform="rotate(180 50 50)"><animate attributeName="opacity" begin="-0.9423076923076923s" dur="1.923076923076923s" keyTimes="0;1" repeatCount="indefinite" values="1;0"/></rect><rect width="5" height="5" x="47.5" y="22.5" fill="#1db954" rx="0" ry="0" transform="rotate(183.6 50 50)"><animate attributeName="opacity" begin="-0.9230769230769231s" dur="1.923076923076923s" keyTimes="0;1" repeatCount="indefinite" values="1;0"/></rect><rect width="5" height="5" x="47.5" y="22.5" fill="#1db954" rx="0" ry="0" transform="rotate(187.2 50 50)"><animate attributeName="opacity" begin="-0.9038461538461539s" dur="1.923076923076923s" keyTimes="0;1" repeatCount="indefinite" values="1;0"/></rect><rect width="5" height="5" x="47.5" y="22.5" fill="#1db954" rx="0" ry="0" transform="rotate(190.8 50 50)"><animate attributeName="opacity" begin="-0.8846153846153846s" dur="1.923076923076923s" keyTimes="0;1" repeatCount="indefinite" values="1;0"/></rect><rect width="5" height="5" x="47.5" y="22.5" fill="#1db954" rx="0" ry="0" transform="rotate(194.4 50 50)"><animate attributeName="opacity" begin="-0.8653846153846154s" dur="1.923076923076923s" keyTimes="0;1" repeatCount="indefinite" values="1;0"/></rect><rect width="5" height="5" x="47.5" y="22.5" fill="#1db954" rx="0" ry="0" transform="rotate(198 50 50)"><animate attributeName="opacity" begin="-0.8461538461538461s" dur="1.923076923076923s" keyTimes="0;1" repeatCount="indefinite" values="1;0"/></rect><rect width="5" height="5" x="47.5" y="22.5" fill="#1db954" rx="0" ry="0" transform="rotate(201.6 50 50)"><animate attributeName="opacity" begin="-0.8269230769230769s" dur="1.923076923076923s" keyTimes="0;1" repeatCount="indefinite" values="1;0"/></rect><rect width="5" height="5" x="47.5" y="22.5" fill="#1db954" rx="0" ry="0" transform="rotate(205.2 50 50)"><animate attributeName="opacity" begin="-0.8076923076923077s" dur="1.923076923076923s" keyTimes="0;1" repeatCount="indefinite" values="1;0"/></rect><rect width="5" height="5" x="47.5" y="22.5" fill="#1db954" rx="0" ry="0" transform="rotate(208.8 50 50)"><animate attributeName="opacity" begin="-0.7884615384615384s" dur="1.923076923076923s" keyTimes="0;1" repeatCount="indefinite" values="1;0"/></rect><rect width="5" height="5" x="47.5" y="22.5" fill="#1db954" rx="0" ry="0" transform="rotate(212.4 50 50)"><animate attributeName="opacity" begin="-0.7692307692307693s" dur="1.923076923076923s" keyTimes="0;1" repeatCount="indefinite" values="1;0"/></rect><rect width="5" height="5" x="47.5" y="22.5" fill="#1db954" rx="0" ry="0" transform="rotate(216 50 50)"><animate attributeName="opacity" begin="-0.75s" dur="1.923076923076923s" keyTimes="0;1" repeatCount="indefinite" values="1;0"/></rect><rect width="5" height="5" x="47.5" y="22.5" fill="#1db954" rx="0" ry="0" transform="rotate(219.6 50 50)"><animate attributeName="opacity" begin="-0.7307692307692307s" dur="1.923076923076923s" keyTimes="0;1" repeatCount="indefinite" values="1;0"/></rect><rect width="5" height="5" x="47.5" y="22.5" fill="#1db954" rx="0" ry="0" transform="rotate(223.2 50 50)"><animate attributeName="opacity" begin="-0.7115384615384616s" dur="1.923076923076923s" keyTimes="0;1" repeatCount="indefinite" values="1;0"/></rect><rect width="5" height="5" x="47.5" y="22.5" fill="#1db954" rx="0" ry="0" transform="rotate(226.8 50 50)"><animate attributeName="opacity" begin="-0.6923076923076923s" dur="1.923076923076923s" keyTimes="0;1" repeatCount="indefinite" values="1;0"/></rect><rect width="5" height="5" x="47.5" y="22.5" fill="#1db954" rx="0" ry="0" transform="rotate(230.4 50 50)"><animate attributeName="opacity" begin="-0.6730769230769231s" dur="1.923076923076923s" keyTimes="0;1" repeatCount="indefinite" values="1;0"/></rect><rect width="5" height="5" x="47.5" y="22.5" fill="#1db954" rx="0" ry="0" transform="rotate(234 50 50)"><animate attributeName="opacity" begin="-0.6538461538461539s" dur="1.923076923076923s" keyTimes="0;1" repeatCount="indefinite" values="1;0"/></rect><rect width="5" height="5" x="47.5" y="22.5" fill="#1db954" rx="0" ry="0" transform="rotate(237.6 50 50)"><animate attributeName="opacity" begin="-0.6346153846153846s" dur="1.923076923076923s" keyTimes="0;1" repeatCount="indefinite" values="1;0"/></rect><rect width="5" height="5" x="47.5" y="22.5" fill="#1db954" rx="0" ry="0" transform="rotate(241.2 50 50)"><animate attributeName="opacity" begin="-0.6153846153846154s" dur="1.923076923076923s" keyTimes="0;1" repeatCount="indefinite" values="1;0"/></rect><rect width="5" height="5" x="47.5" y="22.5" fill="#1db954" rx="0" ry="0" transform="rotate(244.8 50 50)"><animate attributeName="opacity" begin="-0.5961538461538461s" dur="1.923076923076923s" keyTimes="0;1" repeatCount="indefinite" values="1;0"/></rect><rect width="5" height="5" x="47.5" y="22.5" fill="#1db954" rx="0" ry="0" transform="rotate(248.4 50 50)"><animate attributeName="opacity" begin="-0.5769230769230769s" dur="1.923076923076923s" keyTimes="0;1" repeatCount="indefinite" values="1;0"/></rect><rect width="5" height="5" x="47.5" y="22.5" fill="#1db954" rx="0" ry="0" transform="rotate(252 50 50)"><animate attributeName="opacity" begin="-0.5576923076923077s" dur="1.923076923076923s" keyTimes="0;1" repeatCount="indefinite" values="1;0"/></rect><rect width="5" height="5" x="47.5" y="22.5" fill="#1db954" rx="0" ry="0" transform="rotate(255.6 50 50)"><animate attributeName="opacity" begin="-0.5384615384615384s" dur="1.923076923076923s" keyTimes="0;1" repeatCount="indefinite" values="1;0"/></rect><rect width="5" height="5" x="47.5" y="22.5" fill="#1db954" rx="0" ry="0" transform="rotate(259.2 50 50)"><animate attributeName="opacity" begin="-0.5192307692307693s" dur="1.923076923076923s" keyTimes="0;1" repeatCount="indefinite" values="1;0"/></rect><rect width="5" height="5" x="47.5" y="22.5" fill="#1db954" rx="0" ry="0" transform="rotate(262.8 50 50)"><animate attributeName="opacity" begin="-0.5s" dur="1.923076923076923s" keyTimes="0;1" repeatCount="indefinite" values="1;0"/></rect><rect width="5" height="5" x="47.5" y="22.5" fill="#1db954" rx="0" ry="0" transform="rotate(266.4 50 50)"><animate attributeName="opacity" begin="-0.4807692307692308s" dur="1.923076923076923s" keyTimes="0;1" repeatCount="indefinite" values="1;0"/></rect><rect width="5" height="5" x="47.5" y="22.5" fill="#1db954" rx="0" ry="0" transform="rotate(270 50 50)"><animate attributeName="opacity" begin="-0.46153846153846156s" dur="1.923076923076923s" keyTimes="0;1" repeatCount="indefinite" values="1;0"/></rect><rect width="5" height="5" x="47.5" y="22.5" fill="#1db954" rx="0" ry="0" transform="rotate(273.6 50 50)"><animate attributeName="opacity" begin="-0.4423076923076923s" dur="1.923076923076923s" keyTimes="0;1" repeatCount="indefinite" values="1;0"/></rect><rect width="5" height="5" x="47.5" y="22.5" fill="#1db954" rx="0" ry="0" transform="rotate(277.2 50 50)"><animate attributeName="opacity" begin="-0.4230769230769231s" dur="1.923076923076923s" keyTimes="0;1" repeatCount="indefinite" values="1;0"/></rect><rect width="5" height="5" x="47.5" y="22.5" fill="#1db954" rx="0" ry="0" transform="rotate(280.8 50 50)"><animate attributeName="opacity" begin="-0.40384615384615385s" dur="1.923076923076923s" keyTimes="0;1" repeatCount="indefinite" values="1;0"/></rect><rect width="5" height="5" x="47.5" y="22.5" fill="#1db954" rx="0" ry="0" transform="rotate(284.4 50 50)"><animate attributeName="opacity" begin="-0.38461538461538464s" dur="1.923076923076923s" keyTimes="0;1" repeatCount="indefinite" values="1;0"/></rect><rect width="5" height="5" x="47.5" y="22.5" fill="#1db954" rx="0" ry="0" transform="rotate(288 50 50)"><animate attributeName="opacity" begin="-0.36538461538461536s" dur="1.923076923076923s" keyTimes="0;1" repeatCount="indefinite" values="1;0"/></rect><rect width="5" height="5" x="47.5" y="22.5" fill="#1db954" rx="0" ry="0" transform="rotate(291.6 50 50)"><animate attributeName="opacity" begin="-0.34615384615384615s" dur="1.923076923076923s" keyTimes="0;1" repeatCount="indefinite" values="1;0"/></rect><rect width="5" height="5" x="47.5" y="22.5" fill="#1db954" rx="0" ry="0" transform="rotate(295.2 50 50)"><animate attributeName="opacity" begin="-0.3269230769230769s" dur="1.923076923076923s" keyTimes="0;1" repeatCount="indefinite" values="1;0"/></rect><rect width="5" height="5" x="47.5" y="22.5" fill="#1db954" rx="0" ry="0" transform="rotate(298.8 50 50)"><animate attributeName="opacity" begin="-0.3076923076923077s" dur="1.923076923076923s" keyTimes="0;1" repeatCount="indefinite" values="1;0"/></rect><rect width="5" height="5" x="47.5" y="22.5" fill="#1db954" rx="0" ry="0" transform="rotate(302.4 50 50)"><animate attributeName="opacity" begin="-0.28846153846153844s" dur="1.923076923076923s" keyTimes="0;1" repeatCount="indefinite" values="1;0"/></rect><rect width="5" height="5" x="47.5" y="22.5" fill="#1db954" rx="0" ry="0" transform="rotate(306 50 50)"><animate attributeName="opacity" begin="-0.2692307692307692s" dur="1.923076923076923s" keyTimes="0;1" repeatCount="indefinite" values="1;0"/></rect><rect width="5" height="5" x="47.5" y="22.5" fill="#1db954" rx="0" ry="0" transform="rotate(309.6 50 50)"><animate attributeName="opacity" begin="-0.25s" dur="1.923076923076923s" keyTimes="0;1" repeatCount="indefinite" values="1;0"/></rect><rect width="5" height="5" x="47.5" y="22.5" fill="#1db954" rx="0" ry="0" transform="rotate(313.2 50 50)"><animate attributeName="opacity" begin="-0.23076923076923078s" dur="1.923076923076923s" keyTimes="0;1" repeatCount="indefinite" values="1;0"/></rect><rect width="5" height="5" x="47.5" y="22.5" fill="#1db954" rx="0" ry="0" transform="rotate(316.8 50 50)"><animate attributeName="opacity" begin="-0.21153846153846154s" dur="1.923076923076923s" keyTimes="0;1" repeatCount="indefinite" values="1;0"/></rect><rect width="5" height="5" x="47.5" y="22.5" fill="#1db954" rx="0" ry="0" transform="rotate(320.4 50 50)"><animate attributeName="opacity" begin="-0.19230769230769232s" dur="1.923076923076923s" keyTimes="0;1" repeatCount="indefinite" values="1;0"/></rect><rect width="5" height="5" x="47.5" y="22.5" fill="#1db954" rx="0" ry="0" transform="rotate(324 50 50)"><animate attributeName="opacity" begin="-0.17307692307692307s" dur="1.923076923076923s" keyTimes="0;1" repeatCount="indefinite" values="1;0"/></rect><rect width="5" height="5" x="47.5" y="22.5" fill="#1db954" rx="0" ry="0" transform="rotate(327.6 50 50)"><animate attributeName="opacity" begin="-0.15384615384615385s" dur="1.923076923076923s" keyTimes="0;1" repeatCount="indefinite" values="1;0"/></rect><rect width="5" height="5" x="47.5" y="22.5" fill="#1db954" rx="0" ry="0" transform="rotate(331.2 50 50)"><animate attributeName="opacity" begin="-0.1346153846153846s" dur="1.923076923076923s" keyTimes="0;1" repeatCount="indefinite" values="1;0"/></rect><rect width="5" height="5" x="47.5" y="22.5" fill="#1db954" rx="0" ry="0" transform="rotate(334.8 50 50)"><animate attributeName="opacity" begin="-0.11538461538461539s" dur="1.923076923076923s" keyTimes="0;1" repeatCount="indefinite" values="1;0"/></rect><rect width="5" height="5" x="47.5" y="22.5" fill="#1db954" rx="0" ry="0" transform="rotate(338.4 50 50)"><animate attributeName="opacity" begin="-0.09615384615384616s" dur="1.923076923076923s" keyTimes="0;1" repeatCount="indefinite" values="1;0"/></rect><rect width="5" height="5" x="47.5" y="22.5" fill="#1db954" rx="0" ry="0" transform="rotate(342 50 50)"><animate attributeName="opacity" begin="-0.07692307692307693s" dur="1.923076923076923s" keyTimes="0;1" repeatCount="indefinite" values="1;0"/></rect><rect width="5" height="5" x="47.5" y="22.5" fill="#1db954" rx="0" ry="0" transform="rotate(345.6 50 50)"><animate attributeName="opacity" begin="-0.057692307692307696s" dur="1.923076923076923s" keyTimes="0;1" repeatCount="indefinite" values="1;0"/></rect><rect width="5" height="5" x="47.5" y="22.5" fill="#1db954" rx="0" ry="0" transform="rotate(349.2 50 50)"><animate attributeName="opacity" begin="-0.038461538461538464s" dur="1.923076923076923s" keyTimes="0;1" repeatCount="indefinite" values="1;0"/></rect><rect width="5" height="5" x="47.5" y="22.5" fill="#1db954" rx="0" ry="0" transform="rotate(352.8 50 50)"><animate attributeName="opacity" begin="-0.019230769230769232s" dur="1.923076923076923s" keyTimes="0;1" repeatCount="indefinite" values="1;0"/></rect><rect width="5" height="5" x="47.5" y="22.5" fill="#1db954" rx="0" ry="0" transform="rotate(356.4 50 50)"><animate attributeName="opacity" begin="0s" dur="1.923076923076923s" keyTimes="0;1" repeatCount="indefinite" values="1;0"/></rect></svg>