<svg xmlns="http://www.w3.org/2000/svg" class="iconAbove" viewBox="0 0 300 300"><path fill="#442D81" d="M0 0h300v300H0z" class="logo-background-square"/><path fill="#727fd5" d="M112.5 75a37.5 37.5 0 1 0 37.5 37.5A37.5 37.5 0 0 0 112.5 75Zm22.5 37.5A22.5 22.5 0 0 0 112.5 90v-7.5a30 30 0 0 1 30 30zm56.25 3.75A33.75 33.75 0 1 0 225 150a33.75 33.75 0 0 0-33.75-33.75ZM210 150a18.78 18.78 0 0 0-18.75-18.75v-7.5A26.28 26.28 0 0 1 217.5 150Zm-81.75 15a30 30 0 1 0 30 30 30 30 0 0 0-30-30zm15 30a15 15 0 0 0-15-15v-7.5a22.5 22.5 0 0 1 22.5 22.5z"/></svg>